<?xml version="1.0" encoding="utf-8"?>
<!-- Generator: Adobe Illustrator 24.1.2, SVG Export Plug-In . SVG Version: 6.00 Build 0)  -->
<svg version="1.1" id="Layer_1" xmlns="http://www.w3.org/2000/svg" xmlns:xlink="http://www.w3.org/1999/xlink" x="0px" y="0px"
	 viewBox="0 0 801.44 218.47" style="enable-background:new 0 0 801.44 218.47;" xml:space="preserve">
<style type="text/css">
	.st0{fill:#E03E52;}
	.st1{fill:#4E3629;}
</style>
<g>
	<path class="st0" d="M237.18,64.95C237.18,64.95,237.18,64.94,237.18,64.95C237.18,64.94,237.18,64.94,237.18,64.95
		c0-0.11-0.04-0.19-0.06-0.29c-0.02-0.12-0.02-0.24-0.07-0.34c-0.09-0.21-0.21-0.39-0.37-0.55l-23.24-23.24
		c-0.15-0.15-0.34-0.27-0.54-0.36c-0.4-0.17-0.86-0.17-1.26,0c-0.2,0.08-0.39,0.21-0.54,0.36l-22.09,22.09l-22.09-22.09
		c-0.15-0.15-0.34-0.27-0.54-0.36c-0.2-0.08-0.42-0.13-0.63-0.13l0,0c-0.01,0-0.01,0-0.02,0c-0.21,0-0.42,0.04-0.62,0.12
		c-0.2,0.08-0.39,0.21-0.54,0.36l-23.24,23.24c-0.16,0.15-0.28,0.34-0.37,0.55c-0.04,0.11-0.05,0.23-0.07,0.34
		c-0.02,0.1-0.06,0.19-0.06,0.29c0,0,0,0,0,0c0,0,0,0,0,0c0,0.22,0.05,0.44,0.13,0.64c0.03,0.06,0.08,0.11,0.11,0.17
		c0.07,0.13,0.14,0.26,0.24,0.36l23.25,23.25c0,0,0,0,0,0.01l23.25,23.25c0.16,0.16,0.34,0.28,0.55,0.37
		c0.03,0.01,0.07,0.01,0.11,0.02c0.16,0.06,0.33,0.1,0.52,0.1c0.19,0,0.37-0.05,0.55-0.11c0.03-0.01,0.05-0.01,0.08-0.02
		c0.21-0.09,0.4-0.21,0.56-0.37l23.23-23.23c0.01-0.01,0.01-0.01,0.02-0.02l23.25-23.24c0.12-0.12,0.21-0.28,0.29-0.43
		c0.02-0.04,0.05-0.07,0.07-0.1C237.14,65.38,237.18,65.17,237.18,64.95z M210.62,63.29h-17.61l17.61-17.61V63.29z M167.42,84.2
		V66.6h17.61L167.42,84.2z M187.36,68.94v17.61h-17.61L187.36,68.94z M190.67,68.94l17.61,17.61h-17.61V68.94z M193.01,66.6h17.61
		V84.2L193.01,66.6z M167.42,63.29V45.68l17.61,17.61H167.42z M164.11,63.29H146.5l17.61-17.61V63.29z M164.11,66.6v17.61
		L146.49,66.6H164.11z M187.36,89.85v17.61l-17.61-17.61H187.36z M190.67,89.85h17.61l-17.61,17.61V89.85z M213.93,66.6h17.61
		L213.93,84.2V66.6z M213.93,63.29V45.68l17.61,17.61H213.93z"/>
	<g>
		<g>
			<g>
				<path class="st1" d="M116.27,130.46v24.72H63.29v-6.97h6.23c1.86,0,2.88-1.02,2.88-2.88v-43.5c0-1.86-1.02-2.88-2.88-2.88h-6.23
					v-6.97h33.93v6.97h-8.92c-1.86,0-2.88,1.02-2.88,2.88v46.38H98.8c8.37,0,9.76-8.09,10.5-17.75H116.27z"/>
				<path class="st1" d="M148.87,149.42c7.34,0,12.27-4.56,13.66-11.34l5.86,1.02c-2.42,10.5-9.48,17.01-21.38,17.01
					c-14.78,0-24.26-9.95-24.26-23.98c0-14.13,9.67-24.73,23.89-24.73c13.76,0,22.4,9.85,22.4,23.52c0,0.84-0.09,1.67-0.28,2.88h-33
					C136.5,143.38,140.59,149.42,148.87,149.42z M135.76,128.6h21.19c-0.46-10.78-3.63-15.62-9.95-15.62
					C140.5,112.98,136.22,118.28,135.76,128.6z"/>
			</g>
		</g>
		<g>
			<path class="st1" d="M278,132.3c-2.98,15.99-13.48,23.89-27.79,23.89c-19.24,0-32.53-14.13-32.53-32.53
				c0-18.59,13.66-32.53,32.81-32.53c17.01,0,27.33,11.06,27.33,19.8c0,5.39-3.81,8.27-7.99,8.27c-4.55,0-7.72-3.16-7.72-7.25
				c0-3.16,1.77-5.58,4.46-6.69c-2.04-3.35-6.13-7.35-14.31-7.35c-12.08,0-20.08,8.74-20.08,25c0,16.08,7.53,25.75,19.61,25.75
				c10.04,0,16.82-6.97,19.7-18.13L278,132.3z"/>
			<path class="st1" d="M338.08,148.29v6.97h-24.82v-6.97h3.16c1.86,0,2.88-1.02,2.88-2.88v-20.82c0-5.58-3.16-9.11-8.09-9.11
				c-4.65,0-9.76,2.98-10.5,12.55v17.38c0,1.86,1.02,2.88,2.88,2.88h3.07v6.97h-24.72v-6.97h4.09c1.86,0,2.88-1.02,2.88-2.88v-43.5
				c0-1.86-1.02-2.88-2.88-2.88h-4.09v-6.97h18.78v25.1c3.25-5.95,8.65-9.67,15.43-9.67c8.64,0,14.97,6.04,14.97,14.78v23.15
				c0,1.86,1.02,2.88,2.88,2.88H338.08z"/>
			<path class="st1" d="M389.74,131.56c0,14.22-10.22,24.63-24.63,24.63c-14.41,0-24.54-10.41-24.54-24.63
				c0-14.03,10.13-24.07,24.54-24.07C379.52,107.49,389.74,117.53,389.74,131.56z M376.91,131.56c0-12.64-3.9-18.5-11.8-18.5
				c-7.9,0-11.8,5.86-11.8,18.5c0,12.92,3.9,18.96,11.8,18.96C373.01,150.52,376.91,144.48,376.91,131.56z"/>
			<path class="st1" d="M434.85,138.16l5.86,1.02c-2.7,11.43-9.76,17.01-20.92,17.01c-14.69,0-24.91-9.76-24.91-23.98
				c0-14.68,10.97-24.72,24.82-24.72c12.64,0,21.01,8.36,21.01,16.08c0,4.09-2.88,6.97-6.78,6.97c-4.09,0-7.06-2.88-7.06-6.79
				c0-2.14,1.12-4.83,3.81-6.04c-1.86-2.51-4.65-4-9.11-4c-10.13,0-14.13,7.71-14.13,17.29c0,11.9,5.48,18.22,14.22,18.22
				C427.97,149.22,433.36,145.78,434.85,138.16z"/>
			<path class="st1" d="M495.14,131.56c0,14.22-10.22,24.63-24.63,24.63c-14.41,0-24.54-10.41-24.54-24.63
				c0-14.03,10.13-24.07,24.54-24.07C484.92,107.49,495.14,117.53,495.14,131.56z M482.31,131.56c0-12.64-3.9-18.5-11.8-18.5
				c-7.9,0-11.8,5.86-11.8,18.5c0,12.92,3.9,18.96,11.8,18.96C478.41,150.52,482.31,144.48,482.31,131.56z"/>
			<path class="st1" d="M525.12,148.29v6.97h-27.05v-6.97h4.74c1.86,0,2.88-1.02,2.88-2.88v-43.5c0-1.86-1.02-2.88-2.88-2.88h-4.74
				v-6.97h19.43v53.36c0,1.86,1.02,2.88,2.88,2.88H525.12z"/>
			<path class="st1" d="M577.55,148.29v6.97H562.3l-2.51-5.95c-2.6,4.18-7.53,6.88-13.76,6.88c-9.67,0-16.55-6.04-16.55-14.13
				c0-7.62,6.88-13.38,16.36-13.38c5.86,0,10.5,1.95,13.2,5.58v-9.3c0-7.16-3.44-11.71-10.32-11.71c-1.21,0-4.09,0.19-6.78,1.21
				c2.23,0.84,3.44,2.88,3.44,5.3c0,3.81-2.88,6.78-6.88,6.78c-4,0-6.69-2.97-6.69-6.78c0-6.79,8.46-12.27,19.15-12.27
				c11.9,0,19.61,6.6,19.61,17.1v20.82c0,1.86,1.02,2.88,2.88,2.88H577.55z M559.05,141.97c0-4.37-3.63-7.44-8.37-7.44
				c-4.83,0-8.37,3.25-8.37,7.53c0,4.18,3.53,7.35,8.27,7.35C555.42,149.41,559.05,146.34,559.05,141.97z"/>
			<path class="st1" d="M583.95,142.72V115.3h-6.97v-6.97h0.37c7.44,0,9.95-3.81,14.04-10.23h4.27v10.23h15.62v6.97h-15.62v27.42
				c0,3.34,2.51,5.48,5.48,5.48c3.16,0,5.49-2.04,6.04-5.86l5.39,1.21c-1.49,8.46-6.69,12.64-14.04,12.64
				C589.71,156.19,583.95,149.96,583.95,142.72z"/>
			<path class="st1" d="M643.31,148.29v6.97h-27.05v-6.97H621c1.86,0,2.88-1.02,2.88-2.88v-27.23c0-1.86-1.02-2.88-2.88-2.88h-4.74
				v-6.97h19.43v37.09c0,1.86,1.02,2.88,2.88,2.88H643.31z M622.39,95.31c0-4.37,3.25-7.62,7.62-7.62c4.37,0,7.44,3.07,7.44,7.53
				c0,4.37-3.07,7.53-7.44,7.53C625.65,102.74,622.39,99.59,622.39,95.31z"/>
			<path class="st1" d="M671.77,149.5c7.34,0,12.27-4.55,13.66-11.34l5.86,1.02c-2.42,10.5-9.48,17.01-21.38,17.01
				c-14.78,0-24.26-9.94-24.26-23.98c0-14.13,9.67-24.72,23.89-24.72c13.76,0,22.4,9.85,22.4,23.51c0,0.84-0.09,1.68-0.28,2.88h-33
				C659.41,143.46,663.5,149.5,671.77,149.5z M658.67,128.68h21.19c-0.47-10.78-3.63-15.62-9.95-15.62
				C663.41,113.06,659.13,118.36,658.67,128.68z"/>
			<path class="st1" d="M738.15,115.01c0,4.18-3.07,7.35-7.06,7.35c-3.81,0-6.69-2.14-6.69-5.95c0-0.65,0.09-1.11,0.19-1.67
				c-5.11,1.49-9.29,7.06-9.95,21.75v8.92c0,1.86,1.02,2.88,2.88,2.88h8.27v6.97h-29.93v-6.97h4.09c1.86,0,2.88-1.02,2.88-2.88
				v-27.23c0-1.86-1.02-2.88-2.88-2.88h-4.09v-6.97h18.78v11.53c3.07-8.36,8.46-12.36,15.34-12.36
				C734.8,107.49,738.15,110.64,738.15,115.01z"/>
		</g>
	</g>
</g>
</svg>
